<svg width="13" height="16" viewBox="0 0 13 16" fill="none" xmlns="http://www.w3.org/2000/svg">
<path d="M2.88275 15.1712C3.77895 15.5798 4.87959 15.7842 6.18437 15.7842C7.41043 15.7842 8.4647 15.5932 9.34816 15.2107C10.2313 14.8286 10.91 14.2946 11.3845 13.6094C11.8725 12.9105 12.1161 12.0998 12.1161 11.1771C12.1161 10.2809 11.8859 9.52291 11.4244 8.90328C10.9759 8.27062 10.3502 7.77631 9.54575 7.42051C8.74166 7.05132 7.81248 6.82064 6.75788 6.72847L5.6507 6.62961C4.99162 6.57674 4.51707 6.39893 4.22704 6.09565C3.93702 5.79253 3.79201 5.43657 3.79201 5.02805C3.79201 4.71154 3.87137 4.42165 4.02912 4.15802C4.18752 3.88116 4.42463 3.66371 4.74111 3.50547C5.07065 3.34736 5.4727 3.26826 5.94726 3.26826C6.44794 3.26826 6.86337 3.36042 7.19291 3.54509C7.26542 3.58411 7.33433 3.62582 7.399 3.67008L7.41468 3.68105C7.43884 3.69777 7.46269 3.71512 7.48588 3.73262C7.68608 3.88563 7.84547 4.06696 7.96402 4.27661C8.13516 4.5667 8.22138 4.88954 8.22138 5.24551H11.3845C11.3845 4.29637 11.167 3.47252 10.7323 2.77395C10.2973 2.06215 9.67117 1.51513 8.85401 1.13274C8.04959 0.737291 7.08089 0.539566 5.94726 0.539566C4.8662 0.539566 3.93049 0.724228 3.13946 1.09326C2.34876 1.44922 1.72919 1.96329 1.2811 2.63544C0.845735 3.30775 0.628221 4.10534 0.628221 5.02805C0.628221 6.30657 1.05705 7.33471 1.91372 8.11255C2.7704 8.89025 3.91742 9.33838 5.35414 9.457L6.44173 9.55586C7.32453 9.63497 7.96402 9.81296 8.35954 10.0897C8.75472 10.3533 8.95264 10.7158 8.95264 11.1771C8.95264 11.3892 8.91802 11.588 8.84846 11.7738C8.79685 11.9117 8.72631 12.0423 8.63649 12.1658C8.42518 12.4428 8.11556 12.66 7.70699 12.8184C7.29841 12.9764 6.79087 13.0555 6.18437 13.0555C5.51222 13.0555 4.96516 12.9634 4.54352 12.7788C4.12155 12.5809 3.8054 12.3239 3.59409 12.0077C3.3965 11.6912 3.29786 11.3486 3.29786 10.9794H0.153992C0.153992 11.9153 0.384576 12.7458 0.845738 13.4709C1.30723 14.1826 1.98623 14.7496 2.88275 15.1712Z" fill="white"/>
</svg>
